<?xml version="1.0" standalone="no"?>
<!DOCTYPE svg PUBLIC "-//W3C//DTD SVG 20010904//EN"
 "http://www.w3.org/TR/2001/REC-SVG-20010904/DTD/svg10.dtd">
<svg version="1.0" xmlns="http://www.w3.org/2000/svg"
 width="810.000000pt" height="1280.000000pt" viewBox="0 0 810.000000 1280.000000"
 preserveAspectRatio="xMidYMid meet">

<g transform="translate(0.000000,1280.000000) scale(0.100000,-0.100000)"
fill="#000000" stroke="none">
<path d="M0 6400 l0 -6400 4050 0 4050 0 0 6400 0 6400 -4050 0 -4050 0 0
-6400z m3751 5946 c-13 -14 -51 -41 -85 -61 -35 -20 -76 -48 -92 -62 l-29 -26
50 8 c28 3 83 18 123 31 66 22 99 24 88 6 -4 -8 14 -26 30 -29 5 -1 11 8 11
19 4 51 56 34 68 -23 4 -16 6 -32 5 -35 -1 -4 4 -11 12 -15 10 -7 9 -9 -5 -9
-10 0 -16 -4 -12 -9 3 -5 0 -13 -5 -16 -16 -10 -9 -66 12 -97 10 -14 18 -30
18 -34 0 -4 25 -49 55 -100 57 -94 132 -171 205 -209 39 -21 127 -24 172 -6
28 11 148 120 148 135 0 4 20 37 45 73 25 35 45 67 45 70 0 9 91 135 120 166
17 19 40 30 66 34 37 5 42 2 89 -47 82 -85 89 -91 125 -110 20 -10 53 -21 73
-25 20 -4 37 -13 37 -20 0 -8 -25 -37 -55 -66 -73 -70 -99 -123 -93 -195 9
-101 59 -135 143 -94 44 21 77 57 112 120 10 19 31 54 47 77 19 28 27 51 24
67 -6 30 6 36 47 25 17 -4 49 -11 71 -14 83 -11 129 -30 132 -52 2 -11 -12
-61 -31 -109 -43 -110 -66 -253 -48 -288 19 -34 81 -61 206 -90 188 -44 304
-117 355 -223 13 -26 28 -57 33 -68 17 -34 10 -156 -12 -206 -12 -26 -27 -52
-35 -59 -13 -10 -14 3 -9 107 5 104 4 121 -11 136 -23 22 -43 22 -56 -2 -5
-11 -9 -73 -9 -138 1 -66 -2 -130 -6 -144 -8 -27 -67 -121 -72 -115 -2 1 4 34
12 71 18 77 14 109 -15 125 -15 8 -24 6 -40 -10 -16 -16 -20 -32 -19 -87 0
-38 -5 -81 -12 -98 l-12 -30 -8 35 c-6 30 -31 60 -49 60 -23 0 -40 -31 -46
-85 -11 -104 -22 -119 -95 -138 -35 -9 -100 -24 -144 -32 -97 -19 -250 -62
-287 -81 -15 -8 -39 -15 -53 -16 -14 -1 -25 -5 -25 -8 0 -4 -38 -21 -85 -39
-124 -49 -355 -168 -475 -246 -190 -123 -379 -254 -445 -309 -16 -13 -84 -68
-150 -121 -66 -52 -148 -121 -182 -151 -77 -70 -116 -97 -186 -128 -101 -44
-227 -51 -314 -17 -28 11 -62 22 -75 23 -28 4 -133 57 -157 79 -10 9 -31 24
-47 32 -29 15 -165 160 -196 208 -35 55 -50 147 -45 269 3 63 8 126 11 139 13
58 41 131 72 191 51 97 65 120 120 196 28 38 72 100 97 137 44 64 95 132 125
162 6 8 12 17 12 20 0 4 22 31 48 60 99 108 233 297 288 406 50 101 75 184 75
254 1 148 -144 462 -279 603 l-60 63 26 10 c84 33 115 43 192 65 164 46 277
91 315 125 21 20 27 7 6 -15z m193 -221 c-4 -8 -8 -15 -10 -15 -2 0 -4 7 -4
15 0 8 4 15 10 15 5 0 7 -7 4 -15z m1486 -165 c0 -5 -2 -10 -4 -10 -3 0 -8 5
-11 10 -3 6 -1 10 4 10 6 0 11 -4 11 -10z m58 -19 c20 -10 57 -24 80 -31 44
-11 53 -32 16 -38 -20 -3 -144 66 -144 80 0 12 7 10 48 -11z m690 -747 c59
-41 116 -114 137 -175 11 -34 12 -40 1 -26 -7 9 -16 17 -19 17 -21 0 -124 107
-144 150 -9 19 -18 38 -20 43 -7 13 22 7 45 -9z m-4394 -330 c3 -8 0 -11 -10
-7 -7 3 -14 9 -14 14 0 5 -7 9 -15 9 -8 0 -15 4 -15 10 0 13 48 -9 54 -26z
m275 -105 c138 -40 191 -63 191 -85 0 -16 -1 -16 -16 2 -8 10 -13 14 -10 8 7
-15 -120 -8 -171 10 -22 8 -43 12 -46 10 -2 -3 -7 6 -11 20 -3 13 -21 33 -38
45 -45 28 -24 26 101 -10z m226 -108 c-3 -5 3 -11 12 -14 15 -3 15 -4 -1 -3
-20 1 -36 26 -16 26 6 0 9 -4 5 -9z m-487 -69 c38 -19 117 -45 187 -62 73 -17
78 -26 67 -107 -17 -118 -105 -285 -287 -543 -56 -80 -117 -171 -134 -202 -55
-97 -120 -92 -156 11 -48 138 -11 513 66 676 107 228 160 274 257 227z m5137
-240 c173 -37 365 -125 365 -167 0 -7 -9 -20 -20 -30 -19 -17 -21 -17 -54 13
-36 32 -99 58 -115 47 -17 -10 -2 -32 40 -61 47 -32 66 -61 51 -76 -7 -7 -16
-3 -28 11 -27 31 -52 26 -77 -16 l-22 -38 -5 65 c-5 60 -7 66 -34 79 -41 19
-74 0 -103 -59 -43 -84 -24 -161 34 -139 20 7 25 4 38 -27 10 -24 15 -69 15
-130 0 -95 11 -124 46 -124 16 0 17 -10 5 -42 -8 -23 -14 -24 -117 -26 -60 -2
-127 -5 -149 -7 -22 -2 -89 -10 -150 -16 -176 -19 -426 -15 -620 10 -93 12
-177 24 -185 26 -8 2 -42 6 -75 10 -88 9 -182 22 -250 35 -88 16 -398 21 -508
8 -142 -17 -187 12 -195 123 l-4 56 48 38 c133 101 568 277 888 357 351 88
526 109 861 103 180 -3 250 -8 320 -23z m-1450 -977 c147 -39 265 -124 328
-238 19 -34 49 -105 67 -157 28 -82 33 -108 32 -190 0 -134 -33 -225 -158
-435 -68 -115 -97 -156 -215 -301 -194 -241 -255 -348 -329 -574 -27 -80 -54
-158 -61 -175 -13 -30 -53 -72 -96 -102 -30 -20 -137 -24 -185 -7 -21 7 -38
12 -38 10 0 -2 -28 5 -62 16 -58 18 -77 23 -133 32 -11 2 -38 12 -60 22 -22 9
-42 18 -45 19 -36 13 -52 20 -92 41 -27 14 -48 23 -48 20 0 -3 -48 22 -107 56
-60 34 -119 68 -133 75 -14 8 -56 34 -95 58 -96 60 -296 159 -375 185 -36 13
-78 28 -95 35 -153 66 -422 60 -559 -12 -28 -15 -59 -34 -68 -42 -10 -8 -18
-10 -18 -6 0 4 -13 -6 -30 -23 -16 -18 -30 -38 -30 -47 0 -8 -6 -12 -14 -9 -8
3 -17 0 -22 -7 -5 -8 -3 -10 7 -4 17 9 -27 -30 -73 -65 -122 -93 -210 -192
-238 -268 -25 -67 -25 -98 1 -142 39 -64 113 -103 247 -132 156 -32 233 -87
295 -211 23 -43 31 -80 41 -178 9 -83 20 -141 35 -174 21 -47 96 -136 133
-156 35 -19 27 11 -18 65 -68 84 -82 123 -89 255 -8 162 -49 267 -138 353 -60
58 -111 84 -212 108 -160 39 -235 86 -235 148 0 56 238 252 385 317 162 72
337 72 548 1 153 -51 241 -103 427 -252 149 -118 298 -215 419 -271 265 -124
255 -118 328 -200 152 -172 232 -238 447 -368 143 -87 268 -226 323 -360 40
-96 58 -210 58 -370 -1 -136 -3 -156 -26 -215 -44 -116 -83 -167 -292 -380
-199 -204 -269 -299 -404 -558 -36 -70 -84 -158 -106 -196 l-40 -70 -22 28
c-28 36 -59 32 -63 -7 -2 -16 0 -36 4 -45 4 -10 7 -20 6 -24 -1 -4 23 -6 53
-5 68 3 77 12 140 132 118 224 187 328 271 410 94 92 156 147 269 240 44 36
92 77 106 90 l26 25 -2 -35 c0 -19 3 -35 8 -35 6 0 5 -5 0 -12 -9 -11 -40
-104 -47 -140 -2 -7 -6 -20 -9 -28 -3 -8 -24 -69 -46 -135 -89 -271 -148 -392
-226 -463 -73 -67 -116 -91 -245 -142 -58 -22 -123 -49 -146 -60 -72 -35 -183
-119 -289 -220 -57 -55 -117 -107 -132 -117 -97 -61 -221 -165 -400 -332 -118
-110 -126 -116 -210 -153 -51 -22 -69 -40 -58 -59 6 -9 80 17 141 51 54 31
103 69 214 169 52 48 99 90 105 94 33 26 162 117 230 162 44 30 125 96 180
147 133 125 195 173 252 194 110 40 272 108 326 137 67 35 159 131 197 203 26
51 43 79 77 129 11 17 35 59 53 95 19 36 41 76 50 90 33 48 98 207 148 360
102 308 158 553 192 830 23 186 50 322 75 369 8 16 29 41 46 55 60 51 135 15
160 -76 13 -49 6 -276 -9 -304 -5 -10 -6 -29 -2 -45 7 -24 5 -28 -13 -31 -29
-4 -52 -68 -83 -228 -56 -286 -116 -446 -256 -673 -26 -43 -48 -80 -48 -82 0
-3 -18 -30 -39 -62 -90 -134 -281 -454 -315 -530 -73 -163 -93 -243 -107 -432
-11 -159 -32 -300 -54 -368 -9 -26 -43 -106 -77 -178 -33 -71 -65 -139 -69
-150 -5 -11 -25 -60 -46 -110 -32 -78 -37 -101 -37 -170 -1 -117 28 -185 118
-284 79 -86 148 -207 191 -335 22 -67 44 -173 68 -333 6 -41 -21 -79 -64 -88
-47 -11 -55 6 -32 62 30 71 36 122 23 210 -20 135 -76 236 -202 368 -49 52
-76 90 -92 132 -25 66 -51 81 -63 36 -12 -45 -7 -114 12 -173 13 -42 18 -90
18 -205 1 -172 -10 -220 -69 -312 -36 -57 -283 -313 -302 -313 -25 0 -20 35
11 74 85 107 139 214 161 321 8 39 16 135 17 214 2 143 6 175 54 422 33 171
111 403 273 809 60 151 81 233 89 345 5 75 4 88 -13 106 -17 19 -26 20 -89 14
-264 -25 -431 -118 -482 -266 -48 -142 -83 -210 -142 -277 -61 -70 -114 -156
-170 -282 -49 -109 -160 -329 -180 -359 -10 -14 -33 -52 -52 -83 -18 -32 -41
-60 -50 -63 -9 -3 -43 10 -75 30 -33 19 -63 35 -68 35 -5 0 -27 15 -50 33 -23
18 -53 38 -67 46 -14 7 -39 24 -54 37 -15 13 -31 24 -34 24 -3 0 -17 10 -31
22 -14 13 -52 43 -85 68 -33 25 -62 47 -65 50 -3 3 -34 30 -70 60 -36 30 -169
159 -296 285 -127 127 -282 277 -344 335 -326 304 -560 563 -705 780 -16 25
-33 50 -38 55 -50 66 -66 88 -87 125 -14 23 -45 72 -68 108 -48 74 -182 344
-202 407 -7 22 -23 61 -36 87 -13 26 -24 56 -24 67 0 11 -4 23 -10 26 -5 3
-10 13 -10 21 0 8 -9 33 -19 57 -18 39 -32 86 -29 97 1 3 -4 15 -11 28 -10 20
-26 71 -46 152 -2 8 -18 69 -35 135 -27 101 -32 142 -35 259 -5 193 1 203 120
231 137 33 383 171 497 280 29 28 68 63 86 78 43 35 90 36 130 2 41 -34 114
-188 155 -326 89 -294 102 -475 53 -714 -43 -207 -41 -313 6 -401 31 -56 86
-86 66 -36 -50 128 -57 227 -23 367 50 207 55 310 25 507 -33 216 -90 410
-166 563 -48 97 -86 145 -131 169 -46 23 -113 -5 -197 -84 -98 -93 -207 -172
-316 -228 -130 -68 -206 -94 -414 -147 -99 -25 -205 -57 -235 -71 -58 -26
-146 -79 -169 -101 -7 -7 -19 -16 -25 -20 -7 -5 -33 -34 -57 -66 -37 -47 -46
-54 -48 -37 -6 35 65 143 122 187 101 78 219 138 308 158 9 2 26 9 37 15 12 6
21 9 21 6 0 -2 37 9 83 25 45 16 87 31 92 33 6 2 30 13 55 24 25 12 50 22 56
22 5 0 20 9 32 20 12 12 22 18 22 15 0 -4 7 1 16 9 8 9 20 14 25 11 5 -4 9 -1
9 6 0 7 3 10 6 6 3 -3 11 -2 18 4 6 5 46 32 89 59 43 28 84 55 90 60 7 6 39
30 72 54 110 80 215 176 271 249 113 148 240 326 330 464 103 158 116 172 225
260 106 86 171 160 271 309 126 186 232 338 253 360 9 10 109 122 170 190 11
12 27 31 36 41 16 19 135 131 209 196 155 139 425 322 589 400 239 113 579
203 831 221 111 8 345 -3 405 -19z m929 -570 c18 -42 25 -70 19 -78 -5 -6 -9
-25 -10 -42 -1 -21 0 -23 4 -7 3 14 9 20 16 15 8 -4 7 -1 -1 9 -9 12 -10 18
-2 23 30 19 31 -47 1 -79 -12 -12 -19 -25 -16 -28 3 -3 -1 -8 -10 -11 -9 -4
-15 -1 -15 8 0 8 4 15 9 15 11 0 7 72 -4 90 -5 9 -4 11 3 6 7 -4 12 0 12 10 0
10 -3 14 -7 10 -9 -8 -42 70 -42 102 -1 39 14 24 43 -43z m-116 -215 c1 -2 7
-3 12 -4 27 -3 10 -21 -30 -31 -42 -11 -47 -10 -67 12 -13 13 -23 25 -23 27 0
3 103 -1 108 -4z m-3922 -507 c-13 -95 -18 -118 -27 -127 -9 -10 -10 -6 -12
27 -2 31 16 117 24 117 5 0 8 3 8 8 -2 13 1 22 7 22 4 0 4 -21 0 -47z m-1953
-874 c-6 -59 -3 -600 3 -610 4 -8 0 -8 -15 0 -26 14 -39 39 -39 71 1 14 -2 50
-6 80 -8 76 -10 258 -2 300 23 126 40 190 50 187 6 -2 10 -15 9 -28z m4716
-259 c-6 -16 -15 -30 -21 -30 -5 0 -7 -4 -4 -9 3 -4 -3 -16 -14 -26 -19 -17
-20 -17 -20 3 0 16 4 20 17 15 9 -4 14 -2 10 4 -6 9 27 73 37 73 3 0 0 -13 -5
-30z m-89 -71 c0 -14 -17 -10 -23 5 -4 10 -1 13 9 9 7 -3 14 -9 14 -14z m511
-568 c25 -22 31 -34 32 -73 1 -25 5 -44 8 -43 3 2 6 -2 6 -10 0 -22 -14 -8
-44 45 -15 27 -31 46 -35 44 -4 -3 -8 -4 -8 -2 0 2 -4 17 -9 34 -11 39 6 41
50 5z m119 -245 c0 -2 -8 -10 -17 -17 -16 -13 -17 -12 -4 4 13 16 21 21 21 13z
m19 -81 c0 -5 -4 -3 -9 5 -5 8 -9 22 -9 30 0 16 17 -16 18 -35z m-18 -108 l-5
-32 -6 30 c-7 35 -1 63 10 46 3 -6 4 -26 1 -44z m-5161 8 c30 -29 56 -75 62
-110 1 -11 5 -22 8 -25 17 -16 53 -190 66 -320 11 -122 36 -263 80 -455 9 -38
18 -83 21 -100 3 -16 9 -38 14 -47 5 -10 7 -18 5 -18 -3 0 -1 -11 4 -25 9 -25
12 -35 25 -100 3 -16 12 -33 18 -37 9 -6 9 -8 -1 -8 -8 0 -10 -5 -5 -12 4 -7
8 -16 8 -20 0 -4 7 -15 15 -25 9 -10 16 -22 18 -28 1 -5 9 -18 17 -28 8 -9 15
-20 15 -22 0 -10 68 -74 73 -69 3 3 8 -4 12 -15 3 -12 11 -21 16 -21 6 0 21
-10 34 -22 38 -36 54 -49 59 -46 6 4 106 -103 106 -113 0 -4 17 -28 38 -52 66
-78 81 -100 99 -144 10 -24 21 -43 26 -43 4 0 7 -6 7 -13 0 -7 11 -29 25 -49
23 -33 49 -95 61 -143 3 -11 15 -38 26 -59 12 -21 15 -36 8 -31 -7 4 -6 -3 4
-17 9 -14 14 -27 11 -30 -3 -3 0 -18 6 -34 7 -16 13 -40 14 -54 6 -72 27 -204
34 -218 5 -9 17 -37 26 -62 62 -164 121 -257 219 -350 38 -36 131 -127 208
-202 126 -125 142 -146 181 -225 l42 -88 2 -146 c1 -169 -6 -215 -49 -324 -18
-44 -32 -83 -30 -87 1 -5 -1 -8 -6 -8 -8 0 -53 29 -62 40 -3 3 -21 17 -40 30
-95 65 -348 268 -469 376 -302 269 -496 498 -680 799 -61 101 -263 503 -314
625 -78 191 -287 795 -337 975 -78 287 -93 502 -47 675 39 149 65 208 95 224
74 37 103 -27 148 -324 30 -200 52 -329 74 -435 6 -27 12 -57 14 -65 18 -95
156 -495 231 -670 114 -266 160 -414 194 -620 6 -36 15 -85 19 -110 5 -29 13
-45 22 -45 12 0 15 19 14 105 -1 122 -24 259 -64 380 -24 73 -47 135 -134 360
-8 19 -25 62 -39 95 -34 79 -81 247 -101 360 -8 50 -31 176 -50 280 -31 167
-51 294 -87 550 -25 173 -74 287 -144 335 -50 34 -53 44 -27 78 49 64 112 75
162 27z m6737 -70 c71 -34 95 -52 68 -52 -8 0 -15 4 -15 8 0 5 -7 6 -15 3 -8
-4 -15 -1 -15 6 0 6 -4 9 -9 5 -5 -3 -12 -1 -16 5 -3 5 -21 9 -39 8 -18 -1
-37 2 -43 5 -5 3 -16 -3 -23 -14 -25 -33 -40 -23 -40 26 l0 45 38 -6 c20 -3
69 -21 109 -39z m-1159 -15 c-3 -16 -1 -30 3 -30 4 0 8 -66 8 -147 2 -156 25
-447 42 -523 16 -75 20 -144 22 -420 2 -269 7 -310 41 -310 20 0 25 29 21 128
-3 60 -1 80 5 64 5 -12 34 -60 65 -106 56 -85 124 -150 198 -187 77 -40 255
-190 322 -272 22 -27 45 -54 50 -60 6 -7 18 -24 28 -39 21 -34 37 -36 37 -5 0
38 -76 141 -200 269 -63 66 -134 148 -157 182 -48 69 -106 199 -135 296 -18
64 -62 312 -93 525 -9 61 -22 146 -29 190 -15 89 -9 183 14 211 12 14 12 16 1
9 -10 -5 -12 -4 -7 3 4 7 14 12 22 12 9 0 41 21 71 46 152 123 285 135 480 43
63 -30 78 -46 181 -193 53 -76 131 -226 171 -331 106 -277 155 -670 120 -967
-4 -35 -10 -94 -13 -133 -4 -38 -9 -86 -11 -105 -3 -19 -7 -53 -9 -75 -14
-131 -28 -241 -32 -246 -2 -4 -10 -68 -19 -142 -8 -75 -22 -172 -30 -214 -8
-43 -19 -100 -25 -128 -5 -27 -12 -72 -15 -100 -4 -27 -13 -88 -21 -135 -7
-47 -16 -103 -19 -125 -3 -22 -8 -49 -10 -61 -3 -12 -7 -39 -10 -60 -3 -21
-12 -73 -20 -114 -8 -41 -26 -136 -40 -210 -65 -349 -103 -424 -261 -520 -36
-22 -70 -40 -75 -40 -5 0 -9 -4 -9 -10 0 -5 -9 -10 -20 -10 -11 0 -20 -5 -20
-11 0 -6 -7 -9 -15 -5 -8 3 -15 1 -15 -4 0 -5 -12 -13 -27 -16 -16 -4 -32 -9
-38 -13 -5 -3 -17 -6 -25 -8 -27 -4 -124 -15 -155 -17 -16 -1 -36 -5 -42 -9
-7 -5 -13 -5 -13 0 0 4 -57 7 -127 5 -122 -3 -129 -2 -146 19 -15 19 -20 20
-31 8 -15 -15 -76 -159 -97 -227 -25 -86 -39 5 -16 108 19 82 13 107 -31 127
-20 9 -39 17 -42 17 -3 1 -15 7 -28 14 -13 7 -56 24 -96 36 -68 22 -98 28
-211 42 -21 2 -43 10 -47 17 -14 22 -8 82 21 202 16 66 32 145 36 175 10 88
45 221 72 273 37 73 99 137 134 137 51 0 61 -31 64 -192 3 -166 8 -198 47
-293 74 -177 87 -214 98 -273 7 -34 16 -62 21 -62 4 0 15 10 23 22 31 43 17
111 -51 258 -66 140 -66 142 -72 350 -5 167 -9 201 -26 235 -22 44 -37 50
-101 40 -89 -13 -193 -143 -242 -305 -11 -36 -27 -114 -37 -175 -18 -118 -84
-315 -116 -350 -19 -19 -19 -19 -20 5 -1 14 0 43 2 65 3 60 3 62 -15 168 -19
115 -61 225 -150 397 -111 216 -111 267 3 509 99 209 129 329 156 625 27 293
41 360 105 486 28 56 125 192 142 198 4 2 8 8 8 12 0 5 18 28 40 52 39 42 69
83 142 198 33 52 73 138 110 235 37 95 57 37 89 -261 22 -195 22 -207 6 -301
-9 -54 -41 -174 -71 -268 -93 -288 -114 -396 -126 -655 -14 -278 -30 -318
-215 -537 -77 -91 -139 -197 -170 -293 -20 -60 -27 -222 -10 -230 6 -3 17 32
27 82 21 105 66 216 117 283 21 27 76 90 122 138 166 174 202 282 213 622 5
185 25 295 93 515 25 80 56 181 69 225 14 44 27 116 30 160 7 94 -23 378 -63
594 l-26 143 18 77 c14 58 19 121 21 266 1 157 5 204 23 272 11 45 21 97 21
115 0 32 6 48 18 48 2 0 2 -13 0 -30z m-443 -58 c-17 -15 -18 -15 -6 0 7 9 9
23 5 30 -6 10 -4 11 7 0 11 -10 10 -15 -6 -30z m1642 -67 c0 -6 -6 -12 -12
-12 -6 0 -12 6 -12 12 0 6 6 12 12 12 6 0 12 -6 12 -12z m346 -129 c4 -9 -2
-11 -19 -8 -29 5 -32 17 -5 19 11 1 22 -4 24 -11z m-2036 -66 c-1 -11 -5 -20
-10 -20 -4 0 -6 -4 -3 -8 2 -4 -4 -18 -14 -31 -17 -24 -17 -23 -1 27 16 52 31
69 28 32z m-50 -120 c0 -20 -3 -26 -9 -18 -5 9 -8 6 -8 -9 0 -31 -30 -116 -44
-125 -6 -4 -7 -8 -2 -8 5 0 2 -8 -5 -17 -12 -14 -12 -16 0 -8 9 5 12 4 8 -2
-4 -6 -16 -13 -27 -16 -11 -3 -17 -1 -14 4 3 6 -6 8 -21 5 -34 -6 -32 -2 49
113 36 52 66 98 66 102 0 5 2 9 3 9 2 0 4 -14 4 -30z m712 -136 c93 -533 123
-660 178 -767 8 -16 16 -36 18 -45 2 -10 7 -28 11 -41 l7 -24 -31 19 c-66 38
-142 179 -167 309 -8 44 -20 148 -25 230 -9 145 -15 226 -26 346 -4 51 2 96
12 86 2 -2 12 -53 23 -113z m-545 -547 c-32 -63 -110 -177 -120 -177 -6 0 18
50 63 133 24 42 43 82 43 87 0 6 4 10 8 10 5 0 15 12 22 28 11 22 14 24 17 9
3 -10 -12 -50 -33 -90z m-4806 18 c-3 -3 -9 2 -12 12 -6 14 -5 15 5 6 7 -7 10
-15 7 -18z m44 -25 c4 0 8 -4 8 -10 0 -5 -8 -10 -18 -10 -13 0 -18 9 -19 33
-2 30 -1 30 9 10 6 -13 15 -23 20 -23z m58 -94 c0 -4 7 -5 16 -2 8 3 12 2 9
-3 -7 -13 -42 -10 -41 4 1 5 -3 11 -8 12 -12 2 -26 25 -25 43 0 16 49 -38 49
-54z m-166 18 c3 -8 2 -12 -4 -9 -6 3 -10 10 -10 16 0 14 7 11 14 -7z m4222
-809 c9 -34 -27 -171 -82 -319 -25 -67 -68 -179 -94 -251 -27 -71 -64 -169
-83 -217 -43 -107 -58 -172 -107 -461 -21 -125 -43 -234 -50 -242 -8 -10 -17
-12 -29 -6 -9 5 -29 12 -46 15 -16 3 -48 10 -70 16 -22 6 -44 12 -50 13 -5 1
-16 6 -22 10 -7 5 -17 5 -23 2 -5 -3 -10 -1 -10 5 0 7 -6 10 -14 7 -8 -3 -17
-3 -20 1 -4 3 -16 7 -27 9 -22 3 -69 22 -214 83 -86 36 -90 39 -89 68 2 31 73
170 124 240 32 45 60 55 60 22 0 -11 7 -20 15 -20 24 0 52 38 65 88 30 119 54
191 81 243 34 69 130 190 202 256 85 77 122 133 141 210 32 131 79 181 211
228 93 33 123 33 131 0z m177 -402 c-17 -91 -52 -201 -94 -293 -97 -212 -115
-248 -123 -240 -15 15 12 98 70 217 49 100 134 313 134 334 0 11 19 59 23 59
2 0 -3 -35 -10 -77z m2419 -645 c-8 -8 -9 -4 -5 13 4 13 8 18 11 10 2 -7 -1
-18 -6 -23z m-2562 -468 c58 -63 93 -136 91 -189 -2 -51 -15 -65 -45 -48 -31
16 -63 19 -86 7 -15 -8 -20 -8 -20 1 0 7 -9 2 -20 -11 -11 -13 -20 -18 -20
-12 0 30 21 269 25 280 8 23 38 12 75 -28z m-580 -640 c0 -5 -2 -10 -4 -10 -3
0 -8 5 -11 10 -3 6 -1 10 4 10 6 0 11 -4 11 -10z"/>
<path d="M4855 11070 c-4 -7 -3 -16 2 -21 12 -12 45 0 40 15 -5 15 -34 19 -42
6z"/>
<path d="M4994 10950 c-47 -19 -32 -75 28 -109 23 -13 29 -13 52 2 35 24 35
68 0 96 -28 22 -46 25 -80 11z"/>
<path d="M2853 9854 c-39 -22 -43 -29 -43 -63 0 -68 74 -101 137 -62 45 29 52
72 18 116 -31 42 -55 44 -112 9z"/>
<path d="M3157 9799 c-3 -13 0 -22 9 -26 20 -7 38 11 31 31 -9 23 -34 20 -40
-5z"/>
<path d="M3385 9723 c-51 -12 -88 -81 -65 -123 14 -27 68 -60 98 -60 13 0 35
12 49 26 22 22 25 32 20 71 -7 64 -48 98 -102 86z"/>
<path d="M3611 9682 c-8 -15 -7 -21 4 -26 22 -8 46 4 43 23 -5 23 -35 25 -47
3z"/>
<path d="M3120 9660 c-15 -28 4 -62 33 -58 39 5 31 78 -9 78 -7 0 -18 -9 -24
-20z"/>
<path d="M5462 9228 c-31 -31 13 -128 57 -128 25 0 51 32 51 62 0 57 -73 101
-108 66z"/>
<path d="M5688 9069 c-23 -13 -24 -72 -1 -95 16 -15 18 -15 40 10 46 54 16
118 -39 85z"/>
<path d="M5480 9018 c-28 -46 -25 -68 13 -124 43 -62 58 -71 91 -56 31 14 46
48 46 104 0 32 -7 47 -34 74 -46 46 -88 47 -116 2z"/>
<path d="M5760 8880 c-28 -26 -30 -32 -19 -52 35 -67 99 -39 85 37 -9 45 -29
50 -66 15z"/>
<path d="M5582 8728 c-16 -16 -15 -45 2 -51 21 -8 49 16 44 39 -4 23 -29 29
-46 12z"/>
<path d="M2362 7055 c-38 -28 -65 -93 -70 -172 -5 -83 6 -124 69 -260 136
-291 162 -361 193 -523 38 -199 65 -296 103 -380 38 -85 66 -120 225 -285 123
-128 230 -215 266 -215 45 0 40 7 -223 280 -189 197 -228 278 -291 591 -37
190 -55 242 -179 519 -71 159 -79 182 -83 252 -4 61 -1 83 12 103 19 29 56 33
100 10 66 -35 111 -60 116 -66 9 -12 145 -96 225 -139 141 -78 166 -113 235
-325 33 -104 62 -169 81 -180 24 -15 21 9 -10 83 -18 44 -41 114 -52 158 -41
166 -111 259 -246 328 -38 19 -113 63 -165 98 -197 130 -260 155 -306 123z"/>
<path d="M2560 5530 c-30 -30 -40 -63 -40 -128 1 -70 20 -153 48 -208 32 -64
121 -156 146 -152 30 4 31 34 2 72 -64 85 -123 242 -113 303 8 47 23 63 61 63
47 0 188 -104 351 -258 33 -32 80 -74 105 -94 47 -37 114 -70 124 -61 15 16
-396 373 -523 455 -57 35 -130 39 -161 8z"/>
<path d="M2625 4326 c-22 -16 -14 -46 13 -46 29 0 48 26 32 45 -15 18 -21 19
-45 1z"/>
<path d="M4517 4298 c-40 -66 -57 -101 -57 -119 0 -35 55 3 74 51 28 71 15
121 -17 68z"/>
<path d="M3516 3345 c-16 -13 -22 -45 -8 -45 21 0 102 33 102 42 0 5 5 6 10 3
6 -3 10 -2 10 3 0 14 -94 11 -114 -3z"/>
<path d="M6436 8653 c-6 -14 -5 -15 5 -6 7 7 10 15 7 18 -3 3 -9 -2 -12 -12z"/>
<path d="M6228 4241 c-13 -11 -39 -47 -57 -81 -58 -108 -79 -210 -96 -460 -8
-114 -19 -200 -44 -340 -11 -58 -22 -127 -26 -155 -3 -27 -15 -97 -27 -154
-25 -127 -21 -174 26 -281 41 -91 43 -118 20 -239 -12 -61 -15 -119 -12 -196
5 -100 9 -120 46 -213 43 -105 60 -179 63 -269 2 -29 6 -53 10 -53 12 0 17 62
13 150 -4 90 -7 105 -48 245 -34 114 -36 227 -7 342 28 108 26 141 -8 228 -63
156 -63 243 -1 475 73 270 80 311 96 515 14 189 60 323 126 369 68 48 181 -11
360 -188 61 -60 117 -156 168 -287 63 -166 110 -225 208 -263 41 -15 62 -15
62 3 0 4 -19 21 -43 38 -107 77 -164 160 -197 283 -6 25 -32 88 -58 140 -39
82 -59 108 -141 191 -53 53 -125 115 -161 140 -113 76 -221 100 -272 60z"/>
<path d="M6970 3705 c1 -49 49 -140 65 -123 6 6 -40 127 -53 140 -9 9 -12 5
-12 -17z"/>
</g>
</svg>
